<svg width="64" height="64" viewBox="0 0 64 64" fill="none" xmlns="http://www.w3.org/2000/svg">
<path d="M24.8001 60C19.4977 60 15.2001 55.7024 15.2001 50.4C15.2001 45.0976 19.4977 40.8 24.8001 40.8H34.4001V50.4C34.4001 55.7024 30.1025 60 24.8001 60Z" fill="#BAE0BD"/>
<path d="M44.8001 42.4C49.6602 42.4 53.6001 38.4601 53.6001 33.6C53.6001 28.7399 49.6602 24.8 44.8001 24.8C39.94 24.8 36.0001 28.7399 36.0001 33.6C36.0001 38.4601 39.94 42.4 44.8001 42.4Z" fill="#C2FBFF"/>
<path d="M43.8001 23.4C48.8817 23.4 53.6001 19.8816 53.6001 14.8C53.6001 9.71838 49.4817 5.59998 44.4001 5.59998H34.4001V23.2L43.8001 23.4Z" fill="#F78FAE"/>
<path d="M24.8001 60C19.4977 60 15.2001 55.7024 15.2001 50.4C15.2001 45.0976 19.4977 40.8 24.8001 40.8H34.4001V50.4C34.4001 55.7024 30.1025 60 24.8001 60Z" stroke="#5E9C76" stroke-width="1.6" stroke-miterlimit="10" stroke-linecap="round" stroke-linejoin="round"/>
<path d="M44.8001 42.4C49.6602 42.4 53.6001 38.4601 53.6001 33.6C53.6001 28.7399 49.6602 24.8 44.8001 24.8C39.94 24.8 36.0001 28.7399 36.0001 33.6C36.0001 38.4601 39.94 42.4 44.8001 42.4Z" stroke="#689DBA" stroke-width="1.6" stroke-miterlimit="10" stroke-linecap="round" stroke-linejoin="round"/>
<path d="M44.8001 23.2C49.6001 23.2 53.6001 19.2 53.6001 14.8C53.6001 9.71838 49.4817 5.59998 44.4001 5.59998H34.4001V23.2H44.8001Z" stroke="#C7435B" stroke-width="1.6" stroke-miterlimit="10" stroke-linecap="round" stroke-linejoin="round"/>
<path d="M25.0001 23C19.9185 23 15.2001 26.5184 15.2001 31.6C15.2001 36.6816 19.3185 40.8 24.4001 40.8H34.4001V23.2L25.0001 23Z" fill="#BDC9F2"/>
<path d="M24.0001 23.2C19.2001 23.2 15.2001 27.2 15.2001 31.6C15.2001 36.6816 19.3185 40.8 24.4001 40.8H34.4001V23.2H24.0001Z" stroke="#7575A1" stroke-width="1.6" stroke-miterlimit="10" stroke-linecap="round" stroke-linejoin="round"/>
<path d="M25.0001 5.40002C19.9185 5.40002 15.2001 8.91842 15.2001 14C15.2001 19.0816 19.3185 23.2 24.4001 23.2H34.4001V5.60002L25.0001 5.40002Z" fill="#F78F8F"/>
<path d="M24.0001 5.59998C19.2001 5.59998 15.2001 9.59998 15.2001 14C15.2001 19.0816 19.3185 23.2 24.4001 23.2H34.4001V5.59998H24.0001Z" stroke="#C74343" stroke-width="1.6" stroke-miterlimit="10" stroke-linecap="round" stroke-linejoin="round"/>
</svg>
