<svg width="64" height="64" viewBox="0 0 64 64" fill="none" xmlns="http://www.w3.org/2000/svg">
<path d="M57.8422 28.75L34.2501 5.15789C33.5264 4.43421 32.5133 4 31.5001 4C30.487 4 29.4738 4.43421 28.7501 5.15789L23.6843 10.2237L29.6185 16.1579C30.1975 15.8684 30.7764 15.7237 31.5001 15.7237C33.9606 15.7237 35.8422 17.6053 35.8422 20.0658C35.8422 20.7895 35.6975 21.3684 35.408 21.9474L41.1975 27.7368C41.7764 27.4474 42.3554 27.3026 43.0791 27.3026C45.5396 27.3026 47.4212 29.1842 47.4212 31.6447C47.4212 34.1053 45.5396 35.9868 43.0791 35.9868C40.6185 35.9868 38.737 34.1053 38.737 31.6447C38.737 30.9211 38.8817 30.3421 39.1712 29.7632L33.3817 23.9737C33.237 23.9737 33.0922 24.1184 32.9475 24.1184V39.1711C34.6843 39.75 35.8422 41.3421 35.8422 43.2237C35.8422 45.6842 33.9606 47.5658 31.5001 47.5658C29.0396 47.5658 27.158 45.6842 27.158 43.2237C27.158 41.3421 28.3159 39.75 30.0528 39.1711V23.9737C28.3159 23.3947 27.158 21.8026 27.158 19.9211C27.158 19.1974 27.3028 18.6184 27.5922 18.0395L21.658 12.1053L5.15802 28.75C4.43433 29.4737 4.00012 30.4868 4.00012 31.5C4.00012 32.5132 4.43433 33.5263 5.15802 34.25L28.7501 57.8421C29.4738 58.5658 30.487 59 31.5001 59C32.5133 59 33.5264 58.5658 34.2501 57.8421L57.8422 34.25C58.5659 33.5263 59.0001 32.5132 59.0001 31.5C59.0001 30.4868 58.5659 29.4737 57.8422 28.75Z" fill="#F4511E"/>
</svg>
