<svg width="64" height="64" viewBox="0 0 64 64" fill="none" xmlns="http://www.w3.org/2000/svg">
<path d="M32.6666 60.2147L9.33327 46.4267V18.9067L32.6666 5.11865L55.9999 18.9067V46.4267L32.6666 60.2147ZM11.9999 44.9067L32.6666 57.1187L53.3333 44.9067V20.4267L32.6666 8.21465L11.9999 20.4267V44.9067Z" fill="#FF4081"/>
<path d="M32.6666 12C35.2439 12 37.3333 9.91068 37.3333 7.33335C37.3333 4.75602 35.2439 2.66669 32.6666 2.66669C30.0893 2.66669 27.9999 4.75602 27.9999 7.33335C27.9999 9.91068 30.0893 12 32.6666 12Z" fill="#FF4081"/>
<path d="M32.6666 62.6666C35.2439 62.6666 37.3333 60.5773 37.3333 58C37.3333 55.4227 35.2439 53.3333 32.6666 53.3333C30.0893 53.3333 27.9999 55.4227 27.9999 58C27.9999 60.5773 30.0893 62.6666 32.6666 62.6666Z" fill="#FF4081"/>
<path d="M11.3333 49.3333C13.9106 49.3333 15.9999 47.244 15.9999 44.6667C15.9999 42.0893 13.9106 40 11.3333 40C8.75594 40 6.6666 42.0893 6.6666 44.6667C6.6666 47.244 8.75594 49.3333 11.3333 49.3333Z" fill="#FF4081"/>
<path d="M53.9999 49.3333C56.5773 49.3333 58.6666 47.244 58.6666 44.6667C58.6666 42.0893 56.5773 40 53.9999 40C51.4226 40 49.3333 42.0893 49.3333 44.6667C49.3333 47.244 51.4226 49.3333 53.9999 49.3333Z" fill="#FF4081"/>
<path d="M11.3333 25.3333C13.9106 25.3333 15.9999 23.244 15.9999 20.6667C15.9999 18.0893 13.9106 16 11.3333 16C8.75594 16 6.6666 18.0893 6.6666 20.6667C6.6666 23.244 8.75594 25.3333 11.3333 25.3333Z" fill="#FF4081"/>
<path d="M53.9999 25.3333C56.5773 25.3333 58.6666 23.244 58.6666 20.6667C58.6666 18.0893 56.5773 16 53.9999 16C51.4226 16 49.3333 18.0893 49.3333 20.6667C49.3333 23.244 51.4226 25.3333 53.9999 25.3333Z" fill="#FF4081"/>
<path d="M56.9599 46.6666H8.37327L32.6666 3.97064L56.9599 46.6666ZM12.9599 44H52.3733L32.6666 9.36264L12.9599 44Z" fill="#FF4081"/>
</svg>
