<svg width="64" height="64" viewBox="0 0 64 64" fill="none" xmlns="http://www.w3.org/2000/svg">
<path d="M54.6667 6.66669H9.3334L13.3334 52L32.0001 57.3334L50.6667 52L54.6667 6.66669Z" fill="#E65100"/>
<path d="M32.0001 10.6667V53.2L46.9334 48.9334L50.2667 10.6667H32.0001Z" fill="#FF6D00"/>
<path d="M32.0001 33.3333V28H43.4667L42.5334 43.3333L32.0001 46.8V41.2L37.4667 39.3333L37.8667 33.3333H32.0001V33.3333ZM43.8667 22.6666L44.2667 17.3333H32.0001V22.6666H43.8667Z" fill="white"/>
<path d="M32.0001 41.2V46.8L21.4667 43.3333L20.9334 36H26.2667L26.5334 39.3333L32.0001 41.2ZM25.4667 22.6666H32.0001V17.3333H19.8667L20.8001 33.3333H32.0001V28H25.8667L25.4667 22.6666Z" fill="#EEEEEE"/>
</svg>
