<svg width="64" height="64" viewBox="0 0 64 64" fill="none" xmlns="http://www.w3.org/2000/svg">
<path d="M32 45.3333C14.8 45.3333 1.33337 39.4667 1.33337 32C1.33337 24.5333 14.8 18.6667 32 18.6667C49.2 18.6667 62.6667 24.5333 62.6667 32C62.6667 39.4667 49.2 45.3333 32 45.3333ZM32 21.3333C15.2 21.3333 4.00004 26.8 4.00004 32C4.00004 37.2 15.2 42.6667 32 42.6667C48.8 42.6667 60 37.2 60 32C60 26.8 48.8 21.3333 32 21.3333Z" fill="#80DEEA"/>
<path d="M20.1334 59.4667C18.8 59.4667 17.7334 59.2 16.6667 58.5333C10.1334 54.8 11.8667 40.2667 20.4 25.3333C24.4 18.4 29.3334 12.5333 34.1334 8.79999C39.3334 4.79999 44 3.59999 47.2 5.46666C50.5334 7.33332 51.7334 12 50.9334 18.5333C50.1334 24.6667 47.4667 31.8667 43.4667 38.8C39.4667 45.7333 34.5334 51.6 29.7334 55.3333C26.2667 58 22.9334 59.4667 20.1334 59.4667ZM43.8667 7.19999C41.7334 7.19999 38.9334 8.39999 35.8667 10.8C31.3334 14.4 26.6667 20 22.8 26.6667C14.4 41.2 13.6 53.7333 18 56.2667C20.2667 57.6 24 56.4 28.1334 53.2C32.6667 49.6 37.3334 44 41.2 37.3333C45.0667 30.6667 47.6 23.8667 48.4 18.1333C49.0667 12.8 48.2667 9.06666 46 7.73332C45.3334 7.46666 44.6667 7.19999 43.8667 7.19999Z" fill="#80DEEA"/>
<path d="M44 59.4667C37.3334 59.4667 27.7334 51.3333 20.5334 38.6667C11.8667 23.7333 10.1334 9.2 16.6667 5.46667C23.2 1.73334 34.9334 10.4 43.6 25.3333C47.6 32.2667 50.2667 39.4667 51.0667 45.6C52 52.1333 50.6667 56.6667 47.3334 58.6667C46.2667 59.2 45.2 59.4667 44 59.4667ZM18 7.73334C13.6 10.2667 14.4 22.8 22.8 37.3333C31.2 51.8667 41.6 58.8 46 56.2667C48.2667 54.9333 49.0667 51.2 48.4 45.8667C47.6 40.1333 45.0667 33.3333 41.2 26.6667C32.8 12.1333 22.4 5.2 18 7.73334Z" fill="#80DEEA"/>
<path d="M32 37.3333C34.9455 37.3333 37.3333 34.9455 37.3333 32C37.3333 29.0545 34.9455 26.6667 32 26.6667C29.0544 26.6667 26.6666 29.0545 26.6666 32C26.6666 34.9455 29.0544 37.3333 32 37.3333Z" fill="#80DEEA"/>
</svg>
