<svg width="64" height="64" viewBox="0 0 64 64" fill="none" xmlns="http://www.w3.org/2000/svg">
<path d="M30.6666 5.33334C21.844 5.33334 14.6666 15.0267 14.6666 26.94C14.6666 33.3853 16.776 39.1653 20.104 43.1213C20.04 43.4053 20 43.6973 20 44C20 46.2093 21.7906 48 24 48C26.2093 48 28 46.2093 28 44C28 41.7907 26.2093 40 24 40C23.58 40 23.184 40.0827 22.804 40.2027C20.2746 36.9747 18.6666 32.2333 18.6666 26.94C18.6666 17.232 24.0493 9.33334 30.6666 9.33334C35.7826 9.33334 40.148 14.0627 41.872 20.6907C43.368 21.152 44.8546 21.7333 46.312 22.4347C44.772 12.6773 38.3453 5.33334 30.6666 5.33334Z" fill="#7E57C2"/>
<path d="M47.3427 26.7787C42.08 23.5893 36.1773 22.1893 31.1 22.8333C30.3667 21.9253 29.2573 21.3333 28 21.3333C25.7907 21.3333 24 23.124 24 25.3333C24 27.5427 25.7907 29.3333 28 29.3333C29.696 29.3333 31.1373 28.2733 31.7187 26.784C35.876 26.2787 40.8013 27.492 45.2693 30.2013C53.8067 35.376 58.1627 44.2933 54.9787 50.0827C53.876 52.088 51.9307 53.512 49.3547 54.2027C46.3067 55.0173 42.6787 54.728 39.052 53.4987C37.9333 54.528 36.72 55.496 35.4187 56.3893C38.8213 57.8787 42.3467 58.6613 45.644 58.6613C47.2973 58.6613 48.8947 58.4653 50.3893 58.0653C54.044 57.088 56.844 54.9933 58.484 52.0093C62.688 44.368 57.6893 33.0493 47.3427 26.7787Z" fill="#7E57C2"/>
<path d="M46.6667 38.656C46.6667 36.4533 44.876 34.6667 42.6667 34.6667C40.4573 34.6667 38.6667 36.4533 38.6667 38.656C38.6667 39.548 38.9707 40.364 39.4667 41.028C37.7613 44.764 34.4747 48.4507 30.0507 51.132C24.8973 54.2573 19.1373 55.4013 14.644 54.2013C12.068 53.5107 10.1227 52.0867 9.02001 50.0813C6.75068 45.956 8.32535 40.2467 12.5 35.4307C12.0693 33.9053 11.7507 32.3107 11.5587 30.664C4.79868 37.06 2.08001 45.7613 5.51601 52.0093C7.15601 54.9933 9.95601 57.088 13.6107 58.0653C15.1053 58.4653 16.7013 58.6613 18.356 58.6613C22.8173 58.6613 27.6987 57.2373 32.124 54.5547C37.2387 51.4547 41.0347 47.1187 43.0693 42.6053C45.0867 42.4013 46.6667 40.7213 46.6667 38.656Z" fill="#7E57C2"/>
</svg>
