<svg width="64" height="64" viewBox="0 0 64 64" fill="none" xmlns="http://www.w3.org/2000/svg">
<path d="M32.6667 60.2147L9.33337 46.4267V18.9067L32.6667 5.11865L56 18.9067V46.4267L32.6667 60.2147ZM12 44.9067L32.6667 57.1187L53.3334 44.9067V20.4267L32.6667 8.21465L12 20.4267V44.9067Z" fill="#FF4081"/>
<path d="M32.6667 12C35.244 12 37.3333 9.91065 37.3333 7.33332C37.3333 4.75599 35.244 2.66666 32.6667 2.66666C30.0893 2.66666 28 4.75599 28 7.33332C28 9.91065 30.0893 12 32.6667 12Z" fill="#FF4081"/>
<path d="M32.6667 62.6667C35.244 62.6667 37.3333 60.5773 37.3333 58C37.3333 55.4227 35.244 53.3333 32.6667 53.3333C30.0893 53.3333 28 55.4227 28 58C28 60.5773 30.0893 62.6667 32.6667 62.6667Z" fill="#FF4081"/>
<path d="M11.3333 49.3333C13.9106 49.3333 16 47.244 16 44.6667C16 42.0893 13.9106 40 11.3333 40C8.75596 40 6.66663 42.0893 6.66663 44.6667C6.66663 47.244 8.75596 49.3333 11.3333 49.3333Z" fill="#FF4081"/>
<path d="M53.9999 49.3333C56.5772 49.3333 58.6666 47.244 58.6666 44.6667C58.6666 42.0893 56.5772 40 53.9999 40C51.4226 40 49.3333 42.0893 49.3333 44.6667C49.3333 47.244 51.4226 49.3333 53.9999 49.3333Z" fill="#FF4081"/>
<path d="M11.3333 25.3333C13.9106 25.3333 16 23.244 16 20.6667C16 18.0893 13.9106 16 11.3333 16C8.75596 16 6.66663 18.0893 6.66663 20.6667C6.66663 23.244 8.75596 25.3333 11.3333 25.3333Z" fill="#FF4081"/>
<path d="M53.9999 25.3333C56.5772 25.3333 58.6666 23.244 58.6666 20.6667C58.6666 18.0893 56.5772 16 53.9999 16C51.4226 16 49.3333 18.0893 49.3333 20.6667C49.3333 23.244 51.4226 25.3333 53.9999 25.3333Z" fill="#FF4081"/>
<path d="M56.96 46.6667H8.37329L32.6666 3.97067L56.96 46.6667ZM12.96 44H52.3733L32.6666 9.36267L12.96 44Z" fill="#FF4081"/>
</svg>
