<svg width="64" height="64" viewBox="0 0 64 64" fill="none" xmlns="http://www.w3.org/2000/svg">
<path d="M24.8 60C19.4976 60 15.2 55.7024 15.2 50.4C15.2 45.0976 19.4976 40.8 24.8 40.8H34.4V50.4C34.4 55.7024 30.1024 60 24.8 60Z" fill="#BAE0BD"/>
<path d="M44.8 42.4C49.6601 42.4 53.6 38.4601 53.6 33.6C53.6 28.7399 49.6601 24.8 44.8 24.8C39.9399 24.8 36 28.7399 36 33.6C36 38.4601 39.9399 42.4 44.8 42.4Z" fill="#C2FBFF"/>
<path d="M43.7999 23.4C48.8815 23.4 53.5999 19.8816 53.5999 14.8C53.5999 9.71841 49.4815 5.60001 44.3999 5.60001H34.3999V23.2L43.7999 23.4Z" fill="#F78FAE"/>
<path d="M24.8 60C19.4976 60 15.2 55.7024 15.2 50.4C15.2 45.0976 19.4976 40.8 24.8 40.8H34.4V50.4C34.4 55.7024 30.1024 60 24.8 60Z" stroke="#5E9C76" stroke-width="1.6" stroke-miterlimit="10" stroke-linecap="round" stroke-linejoin="round"/>
<path d="M44.8 42.4C49.6601 42.4 53.6 38.4601 53.6 33.6C53.6 28.7399 49.6601 24.8 44.8 24.8C39.9399 24.8 36 28.7399 36 33.6C36 38.4601 39.9399 42.4 44.8 42.4Z" stroke="#689DBA" stroke-width="1.6" stroke-miterlimit="10" stroke-linecap="round" stroke-linejoin="round"/>
<path d="M44.7999 23.2C49.5999 23.2 53.5999 19.2 53.5999 14.8C53.5999 9.71841 49.4815 5.60001 44.3999 5.60001H34.3999V23.2H44.7999Z" stroke="#C7435B" stroke-width="1.6" stroke-miterlimit="10" stroke-linecap="round" stroke-linejoin="round"/>
<path d="M25 23C19.9184 23 15.2 26.5184 15.2 31.6C15.2 36.6816 19.3184 40.8 24.4 40.8H34.4V23.2L25 23Z" fill="#BDC9F2"/>
<path d="M24 23.2C19.2 23.2 15.2 27.2 15.2 31.6C15.2 36.6816 19.3184 40.8 24.4 40.8H34.4V23.2H24Z" stroke="#7575A1" stroke-width="1.6" stroke-miterlimit="10" stroke-linecap="round" stroke-linejoin="round"/>
<path d="M25 5.39999C19.9184 5.39999 15.2 8.91839 15.2 14C15.2 19.0816 19.3184 23.2 24.4 23.2H34.4V5.59999L25 5.39999Z" fill="#F78F8F"/>
<path d="M24 5.60001C19.2 5.60001 15.2 9.60001 15.2 14C15.2 19.0816 19.3184 23.2 24.4 23.2H34.4V5.60001H24Z" stroke="#C74343" stroke-width="1.6" stroke-miterlimit="10" stroke-linecap="round" stroke-linejoin="round"/>
</svg>
