<svg width="64" height="64" viewBox="0 0 64 64" fill="none" xmlns="http://www.w3.org/2000/svg">
<g clip-path="url(#clip0_221_142)">
<path d="M22.9387 25.496L16.396 29.116C16.1507 29.2507 16 29.5013 16 29.772V37.016C16 37.2867 16.1507 37.536 16.396 37.672L22.94 41.2947C23.184 41.4293 23.4867 41.4293 23.7307 41.2947L30.2733 37.672C30.516 37.536 30.6667 37.2867 30.6667 37.016V29.772C30.6667 29.5013 30.516 29.252 30.2707 29.116L23.7293 25.496C23.6067 25.428 23.4693 25.3947 23.3333 25.3947C23.196 25.3947 23.06 25.428 22.9373 25.496H22.9387ZM56.6013 32.0173L55.5107 32.62C55.4693 32.6427 55.4453 32.684 55.4453 32.7293V33.9373C55.4453 33.9827 55.4707 34.024 55.5107 34.0467L56.6013 34.6507C56.6427 34.6733 56.692 34.6733 56.7333 34.6507L57.824 34.0467C57.864 34.024 57.8893 33.9827 57.8893 33.9373V32.7293C57.8893 32.684 57.864 32.6427 57.8227 32.62L56.732 32.0173C56.712 32.0053 56.6893 32 56.6667 32C56.644 32 56.6213 32.0053 56.6013 32.0173Z" fill="#388E3C"/>
<path d="M47.6679 17.8187L44.4826 16.0413C44.3826 15.9853 44.2599 15.9867 44.1613 16.0453C44.0626 16.104 44.0013 16.2093 44.0013 16.324L43.9999 27.06L41.0626 25.4347C40.9399 25.3667 40.8026 25.3333 40.6666 25.3333C40.5306 25.3333 40.3933 25.3667 40.2706 25.4347H40.2719L33.7293 29.0547C33.4839 29.1893 33.3333 29.44 33.3333 29.7093V36.9533C33.3333 37.224 33.4839 37.4733 33.7293 37.6093L40.2733 41.232C40.5173 41.3667 40.8199 41.3667 41.0639 41.232L47.6066 37.6093C47.8493 37.4747 47.9999 37.224 47.9999 36.9533V18.384C47.9999 18.1493 47.8719 17.9333 47.6679 17.8187ZM43.8213 35.2773L40.8479 36.924C40.7373 36.9853 40.5999 36.9853 40.4893 36.924L37.5146 35.2773C37.4013 35.216 37.3333 35.1013 37.3333 34.9787V31.6853C37.3333 31.5627 37.4013 31.4493 37.5133 31.3867L40.4879 29.7413H40.4866C40.5426 29.7107 40.6039 29.696 40.6666 29.696C40.7293 29.696 40.7906 29.712 40.8466 29.7413L43.8199 31.3867C43.9319 31.4493 43.9999 31.564 43.9999 31.6867V34.98C43.9999 35.1013 43.9319 35.216 43.8213 35.2773Z" fill="#37474F"/>
<path d="M22.9387 25.496L16 37.016C16 37.2867 16.1507 37.536 16.396 37.672L22.94 41.2947C23.184 41.4293 23.4867 41.4293 23.7307 41.2947L30.6667 29.772C30.6667 29.5013 30.516 29.252 30.2707 29.116L23.7293 25.496C23.6067 25.428 23.4693 25.3947 23.3333 25.3947C23.196 25.3947 23.06 25.428 22.9373 25.496" fill="#2E7D32"/>
<path d="M22.9387 25.496L16.396 29.116C16.1507 29.2507 16 29.5013 16 29.772L22.9387 41.2947C23.1827 41.4293 23.4853 41.4293 23.7293 41.2947L30.272 37.672C30.516 37.536 30.6667 37.2867 30.6667 37.016L23.7293 25.496C23.6067 25.428 23.4693 25.3947 23.3333 25.3947C23.196 25.3947 23.06 25.428 22.9373 25.496" fill="#4CAF50"/>
<path d="M63.604 29.0547L57.0627 25.4347C56.94 25.3667 56.8027 25.3333 56.6667 25.3333C56.5307 25.3333 56.3933 25.3667 56.2707 25.4347H56.272L49.7293 29.0547C49.4853 29.1893 49.3333 29.4453 49.3333 29.7253V36.94C49.3333 37.2187 49.4853 37.476 49.7293 37.6107L56.2733 41.2333C56.5187 41.3693 56.8187 41.3693 57.064 41.2333L60.0813 39.5627C60.3573 39.4093 60.356 39.0133 60.0787 38.8613L53.5133 35.2787C53.4027 35.216 53.3333 35.1 53.3333 34.9747V31.6867C53.3333 31.564 53.4 31.4507 53.5067 31.392L56.4867 29.744H56.4853C56.5413 29.7133 56.6027 29.6987 56.6653 29.6987C56.728 29.6987 56.7893 29.7147 56.8453 29.744L59.8253 31.3933C59.932 31.452 59.9987 31.5653 59.9987 31.688V34.3707C59.9987 34.4853 60.06 34.592 60.16 34.6493C60.26 34.7053 60.3827 34.7053 60.4827 34.648L63.68 32.7907C63.8773 32.676 64 32.464 64 32.2347V29.728C64 29.4467 63.848 29.1893 63.604 29.0547ZM14.2707 29.0547L7.72933 25.4347C7.60667 25.3667 7.46933 25.3333 7.33333 25.3333C7.19733 25.3333 7.06 25.3667 6.93733 25.4347H6.93867L0.396 29.0547C0.152 29.1893 0 29.4453 0 29.7253V39.6787C0 39.7933 0.0613333 39.9 0.161333 39.9573C0.261333 40.0133 0.384 40.0133 0.484 39.956L3.68133 38.0987C3.87867 37.984 4 37.772 4 37.5427V31.6853C4 31.5627 4.06667 31.4493 4.17333 31.3907L7.15333 29.7427C7.20933 29.712 7.27067 29.6973 7.33333 29.6973C7.396 29.6973 7.45733 29.7133 7.51333 29.7427L10.4933 31.392C10.6 31.4507 10.6667 31.564 10.6667 31.6867V37.544C10.6667 37.7733 10.788 37.9853 10.9867 38.1L14.184 39.9573C14.284 40.0147 14.4067 40.0147 14.5067 39.9587C14.6053 39.9 14.6667 39.7933 14.6667 39.6787V29.7267C14.6667 29.4467 14.5147 29.1893 14.2707 29.0547Z" fill="#37474F"/>
</g>
<defs>
<clipPath id="clip0_221_142">
<rect width="64" height="64" fill="white"/>
</clipPath>
</defs>
</svg>
