<svg width="64" height="64" viewBox="0 0 64 64" fill="none" xmlns="http://www.w3.org/2000/svg">
<path d="M8.00006 56V8H56.0001V56H8.00006Z" fill="#FFD600"/>
<path d="M39.3841 43.9293C40.3067 45.428 41.3094 46.864 43.4334 46.864C45.2174 46.864 46.1534 45.9773 46.1534 44.7506C46.1534 43.2826 45.1854 42.7613 43.2227 41.9066L42.1467 41.448C39.0414 40.1306 36.9761 38.48 36.9761 34.9933C36.9761 31.78 39.4361 29.3346 43.2801 29.3346C46.0174 29.3346 47.9841 30.2826 49.4027 32.7653L46.0507 34.908C45.3134 33.5906 44.5161 33.072 43.2801 33.072C42.0187 33.072 41.2201 33.868 41.2201 34.908C41.2201 36.1933 42.0201 36.7133 43.8667 37.5093L44.9427 37.968C48.6027 39.5266 50.6667 41.1186 50.6667 44.6973C50.6667 48.5533 47.6214 50.6666 43.5334 50.6666C39.5347 50.6666 37.2641 48.66 36.0001 46.176L39.3841 43.9293ZM23.9361 44.0386C24.6107 45.2466 25.6361 46.176 27.1107 46.176C28.5214 46.176 29.3334 45.6186 29.3334 43.452V29.3333H33.7774V44.1346C33.7774 48.624 31.1734 50.6666 27.3707 50.6666C23.9347 50.6666 21.4547 48.3386 20.4441 46.176L23.9361 44.0386Z" fill="#000001"/>
</svg>
