<svg width="64" height="64" viewBox="0 0 64 64" fill="none" xmlns="http://www.w3.org/2000/svg">
<g clip-path="url(#clip0_2_178)">
<path d="M15.1316 22.7006H27.177V23.6601H16.2361V30.8813H26.5245V31.8409H16.2361V39.7691H27.3024V40.7287H15.1316V22.7006V22.7006ZM28.256 22.7006H29.536L35.2073 30.6288L41.0041 22.7006L48.8886 12.6301L35.9351 31.4621L42.6101 40.7287H41.28L35.2073 32.2954L29.1096 40.7287H27.8045L34.5297 31.4621L28.2564 22.7006H28.256ZM43.0871 23.6601V22.7006H56.8134V23.6601H50.4899V40.7282H49.3855V23.6601H43.0875H43.0871ZM0.0626526 22.7006H1.44298L20.4748 51.2424L12.6097 40.7287L1.21681 24.064L1.16665 40.7287H0.0626526V22.7006V22.7006ZM56.7027 39.4794C56.4765 39.4794 56.3074 39.3042 56.3074 39.0781C56.3074 38.8515 56.4765 38.6763 56.7022 38.6763C56.9305 38.6763 57.097 38.8515 57.097 39.0781C57.097 39.3042 56.9305 39.4794 56.7022 39.4794H56.7027ZM57.7872 38.4229H58.3783C58.3865 38.7438 58.6205 38.9591 58.9638 38.9591C59.3478 38.9591 59.5654 38.7278 59.5654 38.2936V35.5451H60.1669V38.2962C60.1669 39.0781 59.7158 39.5282 58.969 39.5282C58.2685 39.5282 57.7876 39.0915 57.7876 38.4229H57.7872ZM60.9535 38.3883H61.5498C61.6008 38.7572 61.9606 38.9916 62.4791 38.9916C62.9621 38.9916 63.3167 38.7408 63.3167 38.3961C63.3167 38.0999 63.0914 37.9217 62.5781 37.8007L62.0787 37.6796C61.3781 37.5153 61.0581 37.1754 61.0581 36.6041C61.0581 35.9114 61.622 35.4504 62.4678 35.4504C63.2549 35.4504 63.83 35.9114 63.8646 36.5661H63.2791C63.2229 36.208 62.9115 35.984 62.4601 35.984C61.9844 35.984 61.6678 36.2132 61.6678 36.5635C61.6678 36.8411 61.8719 37.0002 62.377 37.1187L62.8038 37.2238C63.5986 37.4097 63.9264 37.7332 63.9264 38.3178C63.9264 39.0616 63.3513 39.5282 62.4332 39.5282C61.574 39.5282 60.9963 39.0833 60.9535 38.3879V38.3883Z" fill="black"/>
</g>
<defs>
<clipPath id="clip0_2_178">
<rect width="64" height="64" fill="white"/>
</clipPath>
</defs>
</svg>
