<svg width="64" height="64" viewBox="0 0 64 64" fill="none" xmlns="http://www.w3.org/2000/svg">
<g clip-path="url(#clip0_2_156)">
<path d="M22.9387 25.496L16.3961 29.116C16.1507 29.2507 16.0001 29.5013 16.0001 29.772V37.016C16.0001 37.2867 16.1507 37.536 16.3961 37.672L22.9401 41.2947C23.1841 41.4293 23.4867 41.4293 23.7307 41.2947L30.2734 37.672C30.5161 37.536 30.6667 37.2867 30.6667 37.016V29.772C30.6667 29.5013 30.5161 29.252 30.2707 29.116L23.7294 25.496C23.6067 25.428 23.4694 25.3947 23.3334 25.3947C23.1961 25.3947 23.0601 25.428 22.9374 25.496H22.9387ZM56.6014 32.0173L55.5107 32.62C55.4694 32.6427 55.4454 32.684 55.4454 32.7293V33.9373C55.4454 33.9827 55.4707 34.024 55.5107 34.0467L56.6014 34.6507C56.6427 34.6733 56.6921 34.6733 56.7334 34.6507L57.8241 34.0467C57.8641 34.024 57.8894 33.9827 57.8894 33.9373V32.7293C57.8894 32.684 57.8641 32.6427 57.8227 32.62L56.7321 32.0173C56.7121 32.0053 56.6894 32 56.6667 32C56.6441 32 56.6214 32.0053 56.6014 32.0173Z" fill="#388E3C"/>
<path d="M47.6681 17.8187L44.4827 16.0413C44.3827 15.9853 44.2601 15.9867 44.1614 16.0453C44.0627 16.104 44.0014 16.2093 44.0014 16.324L44.0001 27.06L41.0627 25.4347C40.9401 25.3667 40.8027 25.3333 40.6667 25.3333C40.5307 25.3333 40.3934 25.3667 40.2707 25.4347H40.2721L33.7294 29.0547C33.4841 29.1893 33.3334 29.44 33.3334 29.7093V36.9533C33.3334 37.224 33.4841 37.4733 33.7294 37.6093L40.2734 41.232C40.5174 41.3667 40.8201 41.3667 41.0641 41.232L47.6067 37.6093C47.8494 37.4747 48.0001 37.224 48.0001 36.9533V18.384C48.0001 18.1493 47.8721 17.9333 47.6681 17.8187ZM43.8214 35.2773L40.8481 36.924C40.7374 36.9853 40.6001 36.9853 40.4894 36.924L37.5147 35.2773C37.4014 35.216 37.3334 35.1013 37.3334 34.9787V31.6853C37.3334 31.5627 37.4014 31.4493 37.5134 31.3867L40.4881 29.7413H40.4867C40.5427 29.7107 40.6041 29.696 40.6667 29.696C40.7294 29.696 40.7907 29.712 40.8467 29.7413L43.8201 31.3867C43.9321 31.4493 44.0001 31.564 44.0001 31.6867V34.98C44.0001 35.1013 43.9321 35.216 43.8214 35.2773Z" fill="#37474F"/>
<path d="M22.9387 25.496L16.0001 37.016C16.0001 37.2867 16.1507 37.536 16.3961 37.672L22.9401 41.2947C23.1841 41.4293 23.4867 41.4293 23.7307 41.2947L30.6667 29.772C30.6667 29.5013 30.5161 29.252 30.2707 29.116L23.7294 25.496C23.6067 25.428 23.4694 25.3947 23.3334 25.3947C23.1961 25.3947 23.0601 25.428 22.9374 25.496" fill="#2E7D32"/>
<path d="M22.9387 25.496L16.3961 29.116C16.1507 29.2507 16.0001 29.5013 16.0001 29.772L22.9387 41.2947C23.1827 41.4293 23.4854 41.4293 23.7294 41.2947L30.2721 37.672C30.5161 37.536 30.6667 37.2867 30.6667 37.016L23.7294 25.496C23.6067 25.428 23.4694 25.3947 23.3334 25.3947C23.1961 25.3947 23.0601 25.428 22.9374 25.496" fill="#4CAF50"/>
<path d="M63.6041 29.0546L57.0627 25.4346C56.9401 25.3666 56.8027 25.3333 56.6667 25.3333C56.5307 25.3333 56.3934 25.3666 56.2707 25.4346H56.2721L49.7294 29.0546C49.4854 29.1893 49.3334 29.4453 49.3334 29.7253V36.94C49.3334 37.2186 49.4854 37.476 49.7294 37.6106L56.2734 41.2333C56.5187 41.3693 56.8187 41.3693 57.0641 41.2333L60.0814 39.5626C60.3574 39.4093 60.3561 39.0133 60.0787 38.8613L53.5134 35.2786C53.4027 35.216 53.3334 35.1 53.3334 34.9746V31.6866C53.3334 31.564 53.4001 31.4506 53.5067 31.392L56.4867 29.744H56.4854C56.5414 29.7133 56.6027 29.6986 56.6654 29.6986C56.7281 29.6986 56.7894 29.7146 56.8454 29.744L59.8254 31.3933C59.9321 31.452 59.9987 31.5653 59.9987 31.688V34.3706C59.9987 34.4853 60.0601 34.592 60.1601 34.6493C60.2601 34.7053 60.3827 34.7053 60.4827 34.648L63.6801 32.7906C63.8774 32.676 64.0001 32.464 64.0001 32.2346V29.728C64.0001 29.4466 63.8481 29.1893 63.6041 29.0546ZM14.2707 29.0546L7.72939 25.4346C7.60673 25.3666 7.46939 25.3333 7.33339 25.3333C7.19739 25.3333 7.06006 25.3666 6.93739 25.4346H6.93873L0.39606 29.0546C0.15206 29.1893 6.00815e-05 29.4453 6.00815e-05 29.7253V39.6786C6.00815e-05 39.7933 0.0613934 39.9 0.161393 39.9573C0.261393 40.0133 0.38406 40.0133 0.48406 39.956L3.68139 38.0986C3.87873 37.984 4.00006 37.772 4.00006 37.5426V31.6853C4.00006 31.5626 4.06673 31.4493 4.17339 31.3906L7.15339 29.7426C7.20939 29.712 7.27073 29.6973 7.33339 29.6973C7.39606 29.6973 7.45739 29.7133 7.51339 29.7426L10.4934 31.392C10.6001 31.4506 10.6667 31.564 10.6667 31.6866V37.544C10.6667 37.7733 10.7881 37.9853 10.9867 38.1L14.1841 39.9573C14.2841 40.0146 14.4067 40.0146 14.5067 39.9586C14.6054 39.9 14.6667 39.7933 14.6667 39.6786V29.7266C14.6667 29.4466 14.5147 29.1893 14.2707 29.0546Z" fill="#37474F"/>
</g>
<defs>
<clipPath id="clip0_2_156">
<rect width="64" height="64" fill="white"/>
</clipPath>
</defs>
</svg>
