<svg width="64" height="64" viewBox="0 0 64 64" fill="none" xmlns="http://www.w3.org/2000/svg">
<g clip-path="url(#clip0_2_191)">
<path d="M36.0759 0.26066C29.7983 -0.545494 23.4227 0.528038 17.7551 3.3455C12.0876 6.16296 7.38294 10.5978 4.23598 16.0891C1.08903 21.5806 -0.358823 27.8818 0.0755165 34.196C0.509855 40.5102 2.80688 46.554 6.6761 51.5626C10.5453 56.5714 15.813 60.3202 21.8129 62.3352C27.8127 64.35 34.2753 64.5404 40.3835 62.8824C46.4915 61.2242 51.9709 57.792 56.1283 53.0198C60.2857 48.2474 62.9345 42.3496 63.7399 36.0718C64.8197 27.6546 62.5119 19.1531 57.3239 12.4374C52.1361 5.7216 44.4931 1.34156 36.0759 0.26066Z" fill="#FF6C37"/>
<path d="M23.1349 34.0222C23.1473 34.0476 23.1683 34.0678 23.1939 34.0794C23.2195 34.0912 23.2485 34.0936 23.2757 34.0862L28.3957 32.9822L26.2421 30.7998L23.1733 33.8686C23.1491 33.885 23.1319 33.9096 23.1247 33.938C23.1177 33.9664 23.1213 33.9964 23.1349 34.0222Z" fill="white"/>
<path d="M47.1097 12.0386C46.3961 12.0393 45.6919 12.2001 45.0487 12.509C44.4055 12.818 43.8399 13.2672 43.3933 13.8237C42.9467 14.3802 42.6307 15.0298 42.4685 15.7246C42.3061 16.4195 42.3017 17.1418 42.4555 17.8386C42.6095 18.5353 42.9177 19.1887 43.3573 19.7505C43.7971 20.3124 44.3573 20.7684 44.9967 21.0852C45.6361 21.402 46.3383 21.5712 47.0519 21.5806C47.7653 21.59 48.4717 21.4392 49.1193 21.1394L45.8745 17.8946C45.8373 17.8574 45.8077 17.8133 45.7875 17.7647C45.7673 17.7161 45.7569 17.664 45.7569 17.6114C45.7569 17.5588 45.7673 17.5067 45.7875 17.4581C45.8077 17.4095 45.8373 17.3654 45.8745 17.3282L50.1145 13.0914C49.2629 12.4068 48.2023 12.0351 47.1097 12.0386Z" fill="white"/>
<path d="M50.6967 13.6416L46.7223 17.6L49.8391 20.7168C50.0687 20.5556 50.2829 20.3734 50.4791 20.1728C51.3333 19.3128 51.8305 18.1614 51.8709 16.9499C51.9113 15.7385 51.4917 14.5566 50.6967 13.6416Z" fill="white"/>
<path d="M42.7445 20.9474H42.6741C42.5915 20.9466 42.5089 20.9542 42.4277 20.9698H42.3989C42.3097 20.989 42.2221 21.0146 42.1365 21.0466L42.0693 21.0786C42.0049 21.1054 41.9429 21.1374 41.8837 21.1746L41.8133 21.2194C41.7359 21.2728 41.6631 21.3328 41.5957 21.3986L29.8101 33.1872L31.2693 34.6464L43.7493 23.693C43.8199 23.631 43.8841 23.5624 43.9413 23.4882L43.9957 23.4178C44.0383 23.3552 44.0769 23.29 44.1109 23.2226C44.1301 23.1842 44.1461 23.1458 44.1621 23.1074C44.1837 23.0562 44.2019 23.0038 44.2165 22.9506C44.2165 22.9122 44.2389 22.8738 44.2485 22.8354C44.2643 22.756 44.2751 22.676 44.2805 22.5954V22.4898C44.2805 22.4322 44.2805 22.3746 44.2805 22.317C44.2805 22.2594 44.2805 22.2402 44.2645 22.2018C44.2053 21.8998 44.0579 21.622 43.8409 21.4038C43.6239 21.1858 43.3471 21.0368 43.0453 20.9762H42.9845C42.9053 20.9608 42.8251 20.9512 42.7445 20.9474Z" fill="white"/>
<path d="M26.7924 30.2336L29.2116 32.64L41.0293 20.8224C41.4139 20.4464 41.9151 20.2128 42.4501 20.16C40.3605 18.56 38.0821 18.9792 26.7924 30.2336Z" fill="white"/>
<path d="M44.4151 24.1538L44.2711 24.2946L31.7911 35.245L33.9127 37.3634C39.1735 32.3874 43.8423 27.6482 44.4151 24.1538Z" fill="white"/>
<path d="M13.2856 49.8078C13.2921 49.8306 13.3054 49.8506 13.3237 49.8656C13.342 49.8804 13.3645 49.8894 13.388 49.891L18.828 50.2654L15.7784 47.2158L13.3112 49.6798C13.2952 49.6966 13.2843 49.7174 13.2798 49.74C13.2752 49.7628 13.2773 49.7862 13.2856 49.8078Z" fill="white"/>
<path d="M16.3477 46.6494L19.5637 49.8654C19.6019 49.9062 19.653 49.9326 19.7083 49.9402C19.7637 49.9478 19.82 49.936 19.8677 49.907C19.9176 49.8822 19.9573 49.841 19.98 49.7902C20.0029 49.7394 20.0073 49.6822 19.9925 49.6286L19.4517 47.3182C19.4167 47.1684 19.4326 47.0112 19.4969 46.8716C19.5613 46.732 19.6703 46.6178 19.8069 46.547C25.4453 43.7214 29.9925 40.8126 33.3301 37.907L31.0901 35.667L26.2901 36.7006L16.3477 46.6494Z" fill="white"/>
<path d="M30.4025 34.9888L29.1993 33.7856L27.5353 35.4464C27.5233 35.4608 27.5167 35.479 27.5167 35.4976C27.5167 35.5164 27.5233 35.5344 27.5353 35.5488C27.5429 35.5658 27.5567 35.5796 27.5737 35.5872C27.5909 35.5948 27.6101 35.596 27.6281 35.5904L30.4025 34.9888Z" fill="white"/>
<path d="M50.8087 16.221C50.7923 16.1707 50.7653 16.1244 50.7295 16.0853C50.6939 16.0463 50.6501 16.0153 50.6013 15.9946C50.5527 15.9738 50.5001 15.9637 50.4471 15.9649C50.3941 15.9662 50.3421 15.9788 50.2943 16.0018C50.2467 16.0248 50.2045 16.0578 50.1705 16.0985C50.1367 16.1392 50.1119 16.1867 50.0979 16.2378C50.0839 16.2889 50.0809 16.3424 50.0893 16.3947C50.0977 16.447 50.1171 16.4969 50.1463 16.541C50.2419 16.7335 50.2799 16.9495 50.2555 17.163C50.2311 17.3765 50.1453 17.5783 50.0087 17.7442C49.9639 17.7984 49.9353 17.8643 49.9265 17.9341C49.9175 18.0039 49.9287 18.0748 49.9585 18.1385C49.9883 18.2022 50.0357 18.2561 50.0951 18.294C50.1543 18.3318 50.2233 18.352 50.2935 18.3522C50.3479 18.3516 50.4015 18.3393 50.4507 18.3161C50.4999 18.2929 50.5433 18.2594 50.5783 18.2178C50.8049 17.9424 50.9471 17.6076 50.9879 17.2534C51.0287 16.8992 50.9665 16.5407 50.8087 16.221Z" fill="#FF6C37"/>
</g>
<defs>
<clipPath id="clip0_2_191">
<rect width="64" height="64" fill="white"/>
</clipPath>
</defs>
</svg>
