<svg width="64" height="64" viewBox="0 0 64 64" fill="none" xmlns="http://www.w3.org/2000/svg">
<path d="M32 45.3334C14.8 45.3334 1.33328 39.4667 1.33328 32C1.33328 24.5334 14.8 18.6667 32 18.6667C49.2 18.6667 62.6666 24.5334 62.6666 32C62.6666 39.4667 49.2 45.3334 32 45.3334ZM32 21.3334C15.1999 21.3334 3.99995 26.8 3.99995 32C3.99995 37.2 15.1999 42.6667 32 42.6667C48.8 42.6667 60 37.2 60 32C60 26.8 48.8 21.3334 32 21.3334Z" fill="#80DEEA"/>
<path d="M20.1333 59.4667C18.7999 59.4667 17.7333 59.2 16.6666 58.5333C10.1333 54.8 11.8666 40.2667 20.3999 25.3333C24.3999 18.4 29.3333 12.5333 34.1333 8.79999C39.3333 4.79999 43.9999 3.59999 47.1999 5.46666C50.5333 7.33332 51.7333 12 50.9333 18.5333C50.1333 24.6667 47.4666 31.8667 43.4666 38.8C39.4666 45.7333 34.5333 51.6 29.7333 55.3333C26.2666 58 22.9333 59.4667 20.1333 59.4667ZM43.8666 7.19999C41.7333 7.19999 38.9333 8.39999 35.8666 10.8C31.3333 14.4 26.6666 20 22.7999 26.6667C14.3999 41.2 13.5999 53.7333 17.9999 56.2667C20.2666 57.6 23.9999 56.4 28.1333 53.2C32.6666 49.6 37.3333 44 41.1999 37.3333C45.0666 30.6667 47.5999 23.8667 48.3999 18.1333C49.0666 12.8 48.2666 9.06666 45.9999 7.73332C45.3333 7.46666 44.6666 7.19999 43.8666 7.19999Z" fill="#80DEEA"/>
<path d="M43.9999 59.4666C37.3333 59.4666 27.7333 51.3333 20.5333 38.6666C11.8666 23.7333 10.1333 9.19997 16.6666 5.46664C23.1999 1.7333 34.9333 10.4 43.5999 25.3333C47.5999 32.2666 50.2666 39.4666 51.0666 45.6C51.9999 52.1333 50.6666 56.6666 47.3333 58.6666C46.2666 59.2 45.1999 59.4666 43.9999 59.4666ZM17.9999 7.73331C13.5999 10.2666 14.3999 22.8 22.7999 37.3333C31.1999 51.8666 41.5999 58.8 45.9999 56.2666C48.2666 54.9333 49.0666 51.2 48.3999 45.8666C47.5999 40.1333 45.0666 33.3333 41.1999 26.6666C32.7999 12.1333 22.3999 5.19997 17.9999 7.73331Z" fill="#80DEEA"/>
<path d="M31.9999 37.3334C34.9454 37.3334 37.3333 34.9455 37.3333 32C37.3333 29.0545 34.9454 26.6667 31.9999 26.6667C29.0544 26.6667 26.6666 29.0545 26.6666 32C26.6666 34.9455 29.0544 37.3334 31.9999 37.3334Z" fill="#80DEEA"/>
</svg>
