<svg width="64" height="64" viewBox="0 0 64 64" fill="none" xmlns="http://www.w3.org/2000/svg">
<path d="M30.6666 5.33331C21.8439 5.33331 14.6666 15.0266 14.6666 26.94C14.6666 33.3853 16.7759 39.1653 20.1039 43.1213C20.0399 43.4053 19.9999 43.6973 19.9999 44C19.9999 46.2093 21.7906 48 23.9999 48C26.2093 48 27.9999 46.2093 27.9999 44C27.9999 41.7906 26.2093 40 23.9999 40C23.5799 40 23.1839 40.0826 22.8039 40.2026C20.2746 36.9746 18.6666 32.2333 18.6666 26.94C18.6666 17.232 24.0493 9.33331 30.6666 9.33331C35.7826 9.33331 40.1479 14.0626 41.8719 20.6906C43.3679 21.152 44.8546 21.7333 46.3119 22.4346C44.7719 12.6773 38.3453 5.33331 30.6666 5.33331Z" fill="#7E57C2"/>
<path d="M47.3426 26.7786C42.0799 23.5893 36.1773 22.1893 31.0999 22.8333C30.3666 21.9253 29.2573 21.3333 27.9999 21.3333C25.7906 21.3333 23.9999 23.124 23.9999 25.3333C23.9999 27.5426 25.7906 29.3333 27.9999 29.3333C29.6959 29.3333 31.1373 28.2733 31.7186 26.784C35.8759 26.2786 40.8013 27.492 45.2693 30.2013C53.8066 35.376 58.1626 44.2933 54.9786 50.0826C53.8759 52.088 51.9306 53.512 49.3546 54.2026C46.3066 55.0173 42.6786 54.728 39.0519 53.4986C37.9333 54.528 36.7199 55.496 35.4186 56.3893C38.8213 57.8786 42.3466 58.6613 45.6439 58.6613C47.2973 58.6613 48.8946 58.4653 50.3893 58.0653C54.0439 57.088 56.8439 54.9933 58.4839 52.0093C62.6879 44.368 57.6893 33.0493 47.3426 26.7786Z" fill="#7E57C2"/>
<path d="M46.6666 38.656C46.6666 36.4533 44.8759 34.6667 42.6666 34.6667C40.4573 34.6667 38.6666 36.4533 38.6666 38.656C38.6666 39.548 38.9706 40.364 39.4666 41.028C37.7613 44.764 34.4746 48.4507 30.0506 51.132C24.8973 54.2573 19.1373 55.4013 14.6439 54.2013C12.0679 53.5107 10.1226 52.0867 9.01994 50.0813C6.7506 45.956 8.32527 40.2467 12.4999 35.4307C12.0693 33.9053 11.7506 32.3107 11.5586 30.664C4.7986 37.06 2.07994 45.7613 5.51594 52.0093C7.15594 54.9933 9.95594 57.088 13.6106 58.0653C15.1053 58.4653 16.7013 58.6613 18.3559 58.6613C22.8173 58.6613 27.6986 57.2373 32.1239 54.5547C37.2386 51.4547 41.0346 47.1187 43.0693 42.6053C45.0866 42.4013 46.6666 40.7213 46.6666 38.656Z" fill="#7E57C2"/>
</svg>
