<svg width="64" height="64" viewBox="0 0 64 64" fill="none" xmlns="http://www.w3.org/2000/svg">
<path d="M56.0001 8H8.00006V56H56.0001V8Z" fill="#1976D2"/>
<path d="M36.6534 29.3333H18.9694V33.6853H25.3121V53.3333H30.3374V33.6853H36.6534V29.3333Z" fill="white"/>
<path d="M52.2587 34.7787C52.2587 34.7787 49.8761 33.1893 47.1827 33.1893C44.4894 33.1893 43.5201 34.4693 43.5201 35.8373C43.5201 39.368 53.3614 39.0147 53.3614 46.12C53.3614 57.0653 38.3561 52.2107 38.3561 52.2107V46.96C38.3561 46.96 41.2254 49.1227 44.6667 49.1227C48.1081 49.1227 47.9774 46.872 47.9774 46.5627C47.9774 43.2973 38.2241 43.2973 38.2241 36.0587C38.2241 26.2173 52.4347 30.1 52.4347 30.1L52.2587 34.7787Z" fill="white"/>
</svg>
